<svg width="79" height="30" viewBox="0 0 79 30" fill="none" xmlns="http://www.w3.org/2000/svg">
<g clip-path="url(#clip0_804_607)">
<path d="M18.9693 0C15.9232 0 13.0019 1.21005 10.848 3.36396L3.81855 10.3934C1.66464 12.5473 0.45459 15.4686 0.45459 18.5147C0.45459 24.8579 5.59673 30 11.9399 30C14.986 30 17.9073 28.7899 20.0612 26.636L24.9235 21.7737C24.9235 21.7736 24.9236 21.7738 24.9235 21.7737L39.0906 7.6066C40.1193 6.57791 41.5145 6 42.9693 6C45.4049 6 47.4698 7.58741 48.1857 9.78407L52.6568 5.31296C50.6171 2.11834 47.0406 0 42.9693 0C39.9232 0 37.0019 1.21005 34.848 3.36396L15.8186 22.3934C14.7899 23.4221 13.3947 24 11.9399 24C8.91043 24 6.45459 21.5442 6.45459 18.5147C6.45459 17.0599 7.0325 15.6647 8.06119 14.636L15.0906 7.6066C16.1193 6.57791 17.5145 6 18.9693 6C21.405 6 23.4698 7.58748 24.1857 9.78421L28.6569 5.31307C26.6172 2.1184 23.0407 0 18.9693 0Z" fill="black"/>
<path d="M39.8187 22.3934C38.79 23.4221 37.3948 24 35.94 24C33.5047 24 31.44 22.413 30.7239 20.2167L26.2529 24.6877C28.2927 27.8819 31.869 30 35.94 30C38.9861 30 41.9074 28.7899 44.0613 26.636L63.0907 7.6066C64.1194 6.57791 65.5146 6 66.9694 6C69.9989 6 72.4547 8.45584 72.4547 11.4853C72.4547 12.9401 71.8768 14.3353 70.8481 15.364L63.8187 22.3934C62.79 23.4221 61.3948 24 59.94 24C57.5045 24 55.4397 22.4127 54.7237 20.2162L50.2527 24.6873C52.2924 27.8818 55.8688 30 59.94 30C62.9861 30 65.9074 28.7899 68.0613 26.636L75.0907 19.6066C77.2446 17.4527 78.4547 14.5314 78.4547 11.4853C78.4547 5.14214 73.3126 0 66.9694 0C63.9233 0 61.002 1.21005 58.8481 3.36396L39.8187 22.3934Z" fill="black"/>
</g>
<defs>
<clipPath id="clip0_804_607">
<rect width="78" height="30" fill="white" transform="translate(0.45459)"/>
</clipPath>
</defs>
</svg>
