<svg width="146" height="20" viewBox="0 0 146 20" fill="none" xmlns="http://www.w3.org/2000/svg">
<path d="M0.611816 19.7222H21.0424C24.4868 19.7222 26.3618 17.8472 26.3618 14.3889V13.1389C26.3618 9.69444 24.4868 7.81945 21.0424 7.81945H17.8479V5.61111C17.8479 2.15278 15.959 0.277778 12.5146 0.277778H0.611816V4.65278H11.4035C12.7646 4.65278 12.9868 4.86111 12.9868 6.23611V7.81945H0.792372V12.1806H19.9174C21.2924 12.1806 21.5007 12.4028 21.5007 13.7639C21.5007 15.1389 21.2924 15.3472 19.9174 15.3472H0.611816V19.7222Z" fill="black"/>
<path d="M39.2431 7.81945V12.1806H48.1598V7.81945H39.2431ZM39.0626 19.7222H63.2848V15.3472H39.0626V19.7222ZM39.0626 4.65278H62.9237V0.277778H39.0626V4.65278Z" fill="black"/>
<path d="M103.022 20H105.453V0.277778H100.591V12.9167L80.7997 0H78.3692V19.7222H83.2303V6.88889L103.022 20Z" fill="black"/>
<path d="M140.147 0.277778H119.939V4.65278H139.022C140.397 4.65278 140.606 4.86111 140.606 6.23611V13.7639C140.606 15.1389 140.397 15.3472 139.022 15.3472H119.939V19.7222H140.147C143.592 19.7222 145.467 17.8472 145.467 14.3889V5.61111C145.467 2.15278 143.592 0.277778 140.147 0.277778Z" fill="black"/>
</svg>
