<svg width="157" height="34" viewBox="0 0 157 34" fill="none" xmlns="http://www.w3.org/2000/svg">
<path d="M15.4992 0H36.5808L21.0816 22.9729H0L15.4992 0Z" fill="black"/>
<path d="M16.4224 25.102L10.4192 34H32.5008L48 11.0271H31.7024L22.2064 25.102H16.4224Z" fill="black"/>
<path d="M57 23.944H60.6V16.288C60.6 15.536 60.8 14.936 61.2 14.488C61.616 14.024 62.176 13.792 62.88 13.792C63.584 13.792 64.136 14.024 64.536 14.488C64.952 14.936 65.16 15.536 65.16 16.288V23.944H68.76V16.288C68.76 15.536 68.96 14.936 69.36 14.488C69.776 14.024 70.336 13.792 71.04 13.792C71.744 13.792 72.296 14.024 72.696 14.488C73.112 14.936 73.32 15.536 73.32 16.288V23.944H76.92V15.52C76.92 14.528 76.712 13.664 76.296 12.928C75.88 12.176 75.304 11.592 74.568 11.176C73.848 10.76 73.016 10.552 72.072 10.552C71.224 10.552 70.448 10.72 69.744 11.056C69.056 11.376 68.48 11.88 68.016 12.568C67.648 11.944 67.104 11.456 66.384 11.104C65.68 10.736 64.896 10.552 64.032 10.552C63.2 10.552 62.464 10.712 61.824 11.032C61.184 11.336 60.696 11.808 60.36 12.448V10.84H57V23.944Z" fill="black"/>
<path d="M82.8651 24.232C84.4971 24.232 85.8091 23.728 86.8011 22.72V23.944H90.1611V15.304C90.1611 14.36 89.9211 13.536 89.4411 12.832C88.9771 12.112 88.3211 11.552 87.4731 11.152C86.6251 10.752 85.6491 10.552 84.5451 10.552C83.1531 10.552 81.9291 10.872 80.8731 11.512C79.8331 12.152 79.1211 13.016 78.7371 14.104L81.6171 15.472C81.8411 14.896 82.1931 14.432 82.6731 14.08C83.1691 13.728 83.7371 13.552 84.3771 13.552C85.0491 13.552 85.5771 13.72 85.9611 14.056C86.3611 14.392 86.5611 14.808 86.5611 15.304V15.664L82.9371 16.24C81.3691 16.496 80.2011 16.984 79.4331 17.704C78.6651 18.424 78.2811 19.336 78.2811 20.44C78.2811 21.624 78.6891 22.552 79.5051 23.224C80.3371 23.896 81.4571 24.232 82.8651 24.232ZM82.0011 20.32C82.0011 19.888 82.1371 19.56 82.4091 19.336C82.6811 19.096 83.0731 18.928 83.5851 18.832L86.5611 18.304V18.712C86.5611 19.512 86.2891 20.192 85.7451 20.752C85.2011 21.312 84.4811 21.592 83.5851 21.592C83.1371 21.592 82.7611 21.48 82.4571 21.256C82.1531 21.032 82.0011 20.72 82.0011 20.32Z" fill="black"/>
<path d="M92.3213 23.944H95.9212V16.888C95.9212 15.912 96.1933 15.16 96.7373 14.632C97.2812 14.088 97.9933 13.816 98.8733 13.816H100.001V10.696H99.2332C98.4332 10.696 97.7213 10.848 97.0973 11.152C96.4893 11.44 96.0173 11.992 95.6813 12.808V10.84H92.3213V23.944Z" fill="black"/>
<path d="M101.099 9.664H104.699V6.064H101.099V9.664ZM101.099 23.944H104.699V10.84H101.099V23.944Z" fill="black"/>
<path d="M113.285 29.224C114.549 29.224 115.661 28.968 116.621 28.456C117.597 27.944 118.365 27.232 118.925 26.32C119.485 25.424 119.765 24.4 119.765 23.248V10.84H116.405V12.208C115.477 11.104 114.205 10.552 112.589 10.552C111.389 10.552 110.317 10.824 109.373 11.368C108.429 11.912 107.685 12.664 107.141 13.624C106.597 14.568 106.325 15.656 106.325 16.888C106.325 18.12 106.597 19.224 107.141 20.2C107.685 21.16 108.437 21.92 109.397 22.48C110.357 23.024 111.445 23.296 112.661 23.296C114.133 23.296 115.301 22.864 116.165 22V23.248C116.165 24.096 115.909 24.76 115.397 25.24C114.885 25.736 114.181 25.984 113.285 25.984C112.533 25.984 111.885 25.808 111.341 25.456C110.797 25.104 110.437 24.624 110.261 24.016L106.925 25.192C107.197 26.008 107.637 26.712 108.245 27.304C108.869 27.912 109.613 28.384 110.477 28.72C111.341 29.056 112.277 29.224 113.285 29.224ZM113.165 20.032C112.253 20.032 111.501 19.744 110.909 19.168C110.333 18.592 110.045 17.848 110.045 16.936C110.045 16.008 110.333 15.256 110.909 14.68C111.501 14.088 112.253 13.792 113.165 13.792C114.061 13.792 114.781 14.08 115.325 14.656C115.885 15.232 116.165 15.992 116.165 16.936C116.165 17.864 115.885 18.616 115.325 19.192C114.781 19.752 114.061 20.032 113.165 20.032Z" fill="black"/>
<path d="M128.44 24.232C129.736 24.232 130.912 23.936 131.968 23.344C133.024 22.752 133.864 21.944 134.488 20.92C135.128 19.88 135.448 18.704 135.448 17.392C135.448 16.064 135.128 14.888 134.488 13.864C133.864 12.84 133.024 12.032 131.968 11.44C130.912 10.848 129.736 10.552 128.44 10.552C127.144 10.552 125.96 10.848 124.888 11.44C123.832 12.032 122.984 12.84 122.344 13.864C121.72 14.888 121.408 16.064 121.408 17.392C121.408 18.704 121.72 19.88 122.344 20.92C122.984 21.944 123.832 22.752 124.888 23.344C125.96 23.936 127.144 24.232 128.44 24.232ZM128.44 20.992C127.464 20.992 126.664 20.656 126.04 19.984C125.432 19.312 125.128 18.448 125.128 17.392C125.128 16.352 125.432 15.496 126.04 14.824C126.664 14.136 127.464 13.792 128.44 13.792C129.416 13.792 130.208 14.136 130.816 14.824C131.424 15.496 131.728 16.352 131.728 17.392C131.728 18.448 131.424 19.312 130.816 19.984C130.208 20.656 129.416 20.992 128.44 20.992Z" fill="black"/>
<path d="M137.089 23.944H140.689V5.776H137.089V23.944Z" fill="black"/>
<path d="M149.011 24.232C149.811 24.232 150.555 24.104 151.243 23.848C151.947 23.576 152.531 23.192 152.995 22.696V23.944H156.355V5.776H152.755V11.944C151.827 11.016 150.571 10.552 148.987 10.552C147.739 10.552 146.611 10.856 145.603 11.464C144.595 12.072 143.795 12.896 143.203 13.936C142.611 14.96 142.315 16.112 142.315 17.392C142.315 18.656 142.603 19.808 143.179 20.848C143.771 21.888 144.571 22.712 145.579 23.32C146.587 23.928 147.731 24.232 149.011 24.232ZM149.443 20.992C148.451 20.992 147.635 20.656 146.995 19.984C146.355 19.312 146.035 18.448 146.035 17.392C146.035 16.352 146.355 15.496 146.995 14.824C147.635 14.136 148.451 13.792 149.443 13.792C150.419 13.792 151.211 14.128 151.819 14.8C152.443 15.472 152.755 16.336 152.755 17.392C152.755 18.464 152.443 19.336 151.819 20.008C151.211 20.664 150.419 20.992 149.443 20.992Z" fill="black"/>
</svg>
