<svg width="48" height="42" viewBox="0 0 48 42" fill="none" xmlns="http://www.w3.org/2000/svg">
<g clip-path="url(#clip0_804_609)">
<path fill-rule="evenodd" clip-rule="evenodd" d="M30 36C31.5758 36 33.1363 35.6896 34.5922 35.0866C36.0481 34.4834 37.371 33.5996 38.4853 32.4853C39.5996 31.371 40.4834 30.0481 41.0866 28.5922C41.6896 27.1363 42 25.5758 42 24C42 19.2262 40.1035 14.6477 36.7279 11.2721C33.3523 7.89642 28.7738 6 24 6C19.2262 6 14.6477 7.89642 11.2721 11.2721C7.89642 14.6477 6 19.2262 6 24C6 25.5758 6.31039 27.1363 6.91344 28.5922C7.5165 30.0481 8.40042 31.371 9.51472 32.4853C10.629 33.5996 11.9519 34.4834 13.4078 35.0866C14.8637 35.6896 16.4242 36 18 36H30ZM24 10.8C20.4991 10.8 17.1416 12.1907 14.6662 14.6662C12.1907 17.1416 10.8 20.4991 10.8 24C10.8 24.9455 10.9862 25.8817 11.3481 26.7553C11.7099 27.6289 12.2402 28.4226 12.9089 29.0911C13.5774 29.7598 14.3711 30.29 15.2447 30.652C16.1183 31.0138 17.0545 31.2 18 31.2H30C30.9455 31.2 31.8817 31.0138 32.7553 30.652C33.6289 30.29 34.4226 29.7598 35.0911 29.0911C35.7598 28.4226 36.29 27.6289 36.652 26.7553C37.0138 25.8817 37.2 24.9455 37.2 24C37.2 20.4991 35.8093 17.1416 33.3338 14.6662C30.8584 12.1907 27.5009 10.8 24 10.8Z" fill="black"/>
<path fill-rule="evenodd" clip-rule="evenodd" d="M15.6 42C13.5514 42 11.5229 41.5344 9.63014 40.6298C7.7375 39.7253 6.01776 38.3994 4.56913 36.7279C3.12056 35.0564 1.97147 33.0722 1.18748 30.8884C0.403508 28.7045 0 26.3638 0 24C0 17.6348 2.52857 11.5303 7.02944 7.02943C11.5303 2.52857 17.6348 0 24 0C30.3652 0 36.4697 2.52857 40.9705 7.02943C45.4715 11.5303 48 17.6348 48 24C48 26.3638 47.5964 28.7045 46.8125 30.8884C46.0285 33.0722 44.8794 35.0564 43.4309 36.7279C41.9822 38.3994 40.2625 39.7253 38.3699 40.6298C36.4771 41.5344 34.4486 42 32.4 42H15.6ZM10.4235 10.4235C14.0243 6.82285 18.9078 4.8 24 4.8C29.0922 4.8 33.9757 6.82285 37.5764 10.4235C41.1772 14.0243 43.2 18.9078 43.2 24C43.2 25.8215 42.8885 27.6128 42.2948 29.2666C41.7012 30.9202 40.8451 32.3825 39.8035 33.5843C38.7631 34.7848 37.5654 35.6942 36.3 36.299C35.0377 36.9024 33.7148 37.2 32.4 37.2H15.6C14.2852 37.2 12.9623 36.9024 11.7 36.299C10.4346 35.6942 9.23688 34.7848 8.19644 33.5843C7.1549 32.3825 6.29884 30.9202 5.7052 29.2666C5.11153 27.6128 4.8 25.8215 4.8 24C4.8 18.9078 6.82285 14.0243 10.4235 10.4235Z" fill="black"/>
<path d="M30 30H23.9947C23.5915 29.9996 23.1913 29.9586 22.8 29.8788C22.0416 29.724 21.3164 29.423 20.6666 28.9888C19.6799 28.3295 18.9108 27.3925 18.4567 26.2961C18.3095 25.9405 18.1974 25.5734 18.1212 25.2C17.9623 24.4218 17.9588 23.6159 18.1153 22.8294C18.3468 21.6655 18.9182 20.5964 19.7574 19.7574C20.5964 18.9182 21.6655 18.3468 22.8294 18.1153C22.8659 18.108 22.9022 18.1012 22.9387 18.0946C23.2904 18.0314 23.6456 18 24 18C24.7842 18 25.5646 18.1537 26.2961 18.4567C27.3924 18.9108 28.3295 19.6799 28.9888 20.6665C29.6482 21.6533 30 22.8133 30 24H25.2C25.2 23.7626 25.1297 23.5307 24.9978 23.3333C24.8659 23.136 24.6785 22.9822 24.4592 22.8913C24.24 22.8005 23.9987 22.7767 23.7659 22.823C23.5331 22.8694 23.3192 22.9836 23.1515 23.1515C22.9836 23.3192 22.8694 23.5331 22.823 23.7659C22.7767 23.9987 22.8005 24.24 22.8913 24.4592C22.9822 24.6785 23.136 24.8659 23.3333 24.9978C23.5307 25.1297 23.7626 25.2 24 25.2H30C30.1576 25.2 30.3137 25.1689 30.4592 25.1087C30.6048 25.0483 30.737 24.96 30.8485 24.8485C30.96 24.737 31.0483 24.6048 31.1087 24.4592C31.1689 24.3137 31.2 24.1576 31.2 24C31.2 22.0904 30.4415 20.2591 29.0911 18.9089C27.7409 17.5585 25.9096 16.8 24 16.8C23.7929 16.8 23.5867 16.8089 23.382 16.8265C22.8788 16.8698 22.3842 16.9658 21.906 17.1113C21.4355 17.2542 20.9808 17.4451 20.5492 17.6808C20.0548 17.9508 19.5906 18.2796 19.1676 18.6626C19.0795 18.7423 18.9932 18.8244 18.9089 18.9089C18.3181 19.4995 17.8406 20.1824 17.4904 20.9236C17.3153 21.2941 17.1719 21.6792 17.0622 22.0747C16.9367 22.5269 16.8551 22.9925 16.8199 23.4653C16.8067 23.6426 16.8 23.821 16.8 24C16.8 24.9409 16.9844 25.8775 17.348 26.7553C17.8931 28.071 18.8159 29.1954 19.9999 29.9866C20.0066 29.9911 20.0134 29.9956 20.0201 30H18C17.2121 30 16.4318 29.8448 15.7039 29.5433C14.976 29.2417 14.3146 28.7998 13.7574 28.2426C13.2002 27.6854 12.7583 27.024 12.4567 26.2961C12.1552 25.5682 12 24.7879 12 24C12 20.8174 13.2643 17.7652 15.5147 15.5147C17.7652 13.2643 20.8174 12 24 12C27.1826 12 30.2348 13.2643 32.4853 15.5147C34.7357 17.7652 36 20.8174 36 24C36 24.7879 35.8448 25.5682 35.5433 26.2961C35.2417 27.024 34.7998 27.6854 34.2426 28.2426C33.6854 28.7998 33.024 29.2417 32.2961 29.5433C31.5682 29.8448 30.7879 30 30 30Z" fill="black"/>
</g>
<defs>
<clipPath id="clip0_804_609">
<rect width="48" height="42" fill="white"/>
</clipPath>
</defs>
</svg>
