<svg width="156" height="30" viewBox="0 0 156 30" fill="none" xmlns="http://www.w3.org/2000/svg">
<path d="M4.17382 3.34064C6.28448 1.32551 9.15044 0.149269 12.0552 0.00298538C13.0493 0.00298538 14.0465 0.00895614 15.0406 0C14.9898 1.06578 15.0406 2.13455 15.0107 3.20033C14.8704 5.58266 13.9897 7.91126 12.506 9.78011C10.5775 12.2938 7.6279 13.9805 4.49624 14.4164C3.12893 14.6373 1.74073 14.497 0.364471 14.5358C0.388354 13.3626 0.31372 12.1863 0.406266 11.0161C0.674951 8.11426 2.04524 5.33487 4.17382 3.34064Z" fill="black"/>
<path d="M15.9612 0C17.027 0.0119415 18.0928 -0.00597076 19.1616 0.00597076C21.8215 0.19405 24.4457 1.21505 26.4489 2.98538C28.6581 4.8811 30.1716 7.59182 30.5597 10.4876C30.7299 11.8311 30.6224 13.1894 30.6881 14.5388C29.7567 14.5358 28.8282 14.5328 27.8968 14.5388C25.607 14.4761 23.356 13.7357 21.4394 12.4878C20.5557 11.8549 19.6482 11.2131 18.9854 10.3354C17.5315 8.71134 16.5434 6.67232 16.1702 4.52285C15.8896 3.03016 16.003 1.50762 15.9612 0Z" fill="black"/>
<path d="M0.366504 15.3925C1.31287 15.4463 2.26222 15.3478 3.2056 15.4522C7.24482 15.5388 11.1646 17.8077 13.2574 21.2618C14.4575 23.1963 15.1023 25.4891 15.0187 27.7669C15.0158 28.5133 15.0277 29.2566 15.0068 30C13.5081 29.9552 11.9946 30.0776 10.5108 29.788C7.21497 29.2328 4.1848 27.2714 2.36074 24.4711C0.978507 22.435 0.288884 19.9482 0.360534 17.4913C0.360534 16.7897 0.360534 16.0911 0.366504 15.3925Z" fill="black"/>
<path d="M25.644 15.7088C27.268 15.3476 28.9428 15.4073 30.5937 15.4073L30.6654 15.4789C30.6295 17.0403 30.7519 18.6196 30.4385 20.163C29.7787 23.626 27.4859 26.7189 24.402 28.4176C22.4824 29.4863 20.2792 30.0118 18.085 29.9879C17.3834 29.9909 16.6789 29.9759 15.9773 29.9968C15.9773 28.7042 15.9236 27.4055 16.0698 26.1188C16.4102 23.0051 18.0939 20.1063 20.5151 18.1479C22.0137 16.9657 23.7751 16.1088 25.644 15.7088Z" fill="black"/>
<path d="M42.9211 24.2178C42.9211 24.7433 42.7392 25.188 42.3753 25.5519C42.0317 25.8956 41.597 26.0674 41.0715 26.0674C40.5661 26.0674 40.1416 25.8956 39.798 25.5519C39.4543 25.188 39.2825 24.7433 39.2825 24.2178V5.47903C39.2825 4.95345 39.4543 4.51885 39.798 4.1752C40.1618 3.81134 40.6065 3.62941 41.1321 3.62941C41.6577 3.62941 42.0822 3.81134 42.4056 4.1752C42.7493 4.51885 42.9211 4.95345 42.9211 5.47903V24.2178Z" fill="black"/>
<path d="M57.5254 9.84534C58.051 9.84534 58.4856 10.0273 58.8292 10.3911C59.1729 10.7348 59.3447 11.1694 59.3447 11.695V19.3966C59.3447 21.5394 58.7484 23.2374 57.5557 24.4907C56.3631 25.7439 54.6449 26.3706 52.4011 26.3706C50.1573 26.3706 48.4391 25.7439 47.2464 24.4907C46.074 23.2374 45.4878 21.5394 45.4878 19.3966V11.695C45.4878 11.1694 45.6596 10.7348 46.0032 10.3911C46.3469 10.0273 46.7815 9.84534 47.3071 9.84534C47.8326 9.84534 48.2672 10.0273 48.6109 10.3911C48.9545 10.7348 49.1263 11.1694 49.1263 11.695V19.3966C49.1263 20.6297 49.3992 21.5495 49.945 22.1559C50.4908 22.7421 51.3095 23.0352 52.4011 23.0352C53.5129 23.0352 54.3417 22.7421 54.8874 22.1559C55.4332 21.5495 55.7061 20.6297 55.7061 19.3966V11.695C55.7061 11.1694 55.8779 10.7348 56.2216 10.3911C56.5652 10.0273 56.9998 9.84534 57.5254 9.84534Z" fill="black"/>
<path d="M70.2882 9.54212C71.9053 9.54212 73.098 9.9363 73.8661 10.7247C74.6343 11.4928 75.1396 12.4934 75.3822 13.7265L74.8667 13.4536L75.1093 12.9685C75.3519 12.5035 75.7259 12.0083 76.2312 11.4827C76.7366 10.9369 77.343 10.4821 78.0505 10.1182C78.7782 9.73416 79.5868 9.54212 80.4762 9.54212C81.9317 9.54212 83.0334 9.85544 83.7813 10.4821C84.5494 11.1087 85.075 11.9476 85.358 12.9988C85.641 14.0297 85.7825 15.1819 85.7825 16.4554V24.2178C85.7825 24.7433 85.6107 25.188 85.267 25.5519C84.9234 25.8956 84.4888 26.0674 83.9632 26.0674C83.4376 26.0674 83.003 25.8956 82.6594 25.5519C82.3157 25.188 82.1439 24.7433 82.1439 24.2178V16.4554C82.1439 15.7884 82.0631 15.192 81.9014 14.6665C81.7396 14.1207 81.4465 13.6861 81.022 13.3626C80.5975 13.0392 79.9911 12.8775 79.2027 12.8775C78.4346 12.8775 77.7776 13.0392 77.2318 13.3626C76.686 13.6861 76.2716 14.1207 75.9886 14.6665C75.7259 15.192 75.5945 15.7884 75.5945 16.4554V24.2178C75.5945 24.7433 75.4226 25.188 75.079 25.5519C74.7354 25.8956 74.3008 26.0674 73.7752 26.0674C73.2496 26.0674 72.815 25.8956 72.4713 25.5519C72.1277 25.188 71.9559 24.7433 71.9559 24.2178V16.4554C71.9559 15.7884 71.875 15.192 71.7133 14.6665C71.5516 14.1207 71.2585 13.6861 70.834 13.3626C70.4095 13.0392 69.803 12.8775 69.0147 12.8775C68.2465 12.8775 67.5896 13.0392 67.0438 13.3626C66.498 13.6861 66.0836 14.1207 65.8006 14.6665C65.5378 15.192 65.4064 15.7884 65.4064 16.4554V24.2178C65.4064 24.7433 65.2346 25.188 64.891 25.5519C64.5473 25.8956 64.1127 26.0674 63.5871 26.0674C63.0616 26.0674 62.6269 25.8956 62.2833 25.5519C61.9397 25.188 61.7678 24.7433 61.7678 24.2178V11.695C61.7678 11.1694 61.9397 10.7348 62.2833 10.3911C62.6269 10.0273 63.0616 9.84534 63.5871 9.84534C64.1127 9.84534 64.5473 10.0273 64.891 10.3911C65.2346 10.7348 65.4064 11.1694 65.4064 11.695V12.9988L64.9516 12.9078C65.1335 12.5642 65.3862 12.2003 65.7096 11.8162C66.0331 11.412 66.4272 11.038 66.8922 10.6943C67.3571 10.3507 67.8726 10.0778 68.4386 9.87566C69.0046 9.6533 69.6211 9.54212 70.2882 9.54212Z" fill="black"/>
<path d="M91.6308 24.2178C91.6308 24.7433 91.459 25.188 91.1153 25.5519C90.7717 25.8956 90.3371 26.0674 89.8115 26.0674C89.2859 26.0674 88.8513 25.8956 88.5077 25.5519C88.164 25.188 87.9922 24.7433 87.9922 24.2178V11.695C87.9922 11.1694 88.164 10.7348 88.5077 10.3911C88.8513 10.0273 89.2859 9.84534 89.8115 9.84534C90.3371 9.84534 90.7717 10.0273 91.1153 10.3911C91.459 10.7348 91.6308 11.1694 91.6308 11.695V24.2178ZM89.7812 7.87443C89.0939 7.87443 88.6087 7.76325 88.3257 7.5409C88.0427 7.31854 87.9012 6.92436 87.9012 6.35836V5.78225C87.9012 5.19603 88.0528 4.80185 88.3561 4.5997C88.6795 4.37735 89.1646 4.26617 89.8115 4.26617C90.519 4.26617 91.0142 4.37735 91.2972 4.5997C91.5802 4.82206 91.7217 5.21624 91.7217 5.78225V6.35836C91.7217 6.94457 91.5701 7.34886 91.2669 7.57122C90.9637 7.77336 90.4685 7.87443 89.7812 7.87443Z" fill="black"/>
<path d="M102.526 9.54212C104.022 9.54212 105.154 9.85544 105.922 10.4821C106.711 11.1087 107.246 11.9476 107.529 12.9988C107.832 14.0297 107.984 15.1819 107.984 16.4554V24.2178C107.984 24.7433 107.812 25.188 107.469 25.5519C107.125 25.8956 106.69 26.0674 106.165 26.0674C105.639 26.0674 105.205 25.8956 104.861 25.5519C104.517 25.188 104.345 24.7433 104.345 24.2178V16.4554C104.345 15.7884 104.255 15.192 104.073 14.6665C103.911 14.1207 103.608 13.6861 103.163 13.3626C102.718 13.0392 102.081 12.8775 101.253 12.8775C100.444 12.8775 99.7568 13.0392 99.1908 13.3626C98.645 13.6861 98.2205 14.1207 97.9173 14.6665C97.6343 15.192 97.4928 15.7884 97.4928 16.4554V24.2178C97.4928 24.7433 97.321 25.188 96.9773 25.5519C96.6337 25.8956 96.1991 26.0674 95.6735 26.0674C95.1479 26.0674 94.7133 25.8956 94.3697 25.5519C94.026 25.188 93.8542 24.7433 93.8542 24.2178V11.695C93.8542 11.1694 94.026 10.7348 94.3697 10.3911C94.7133 10.0273 95.1479 9.84534 95.6735 9.84534C96.1991 9.84534 96.6337 10.0273 96.9773 10.3911C97.321 10.7348 97.4928 11.1694 97.4928 11.695V12.9988L97.038 12.9078C97.2199 12.5642 97.4827 12.2003 97.8263 11.8162C98.17 11.412 98.5743 11.038 99.0392 10.6943C99.5041 10.3507 100.03 10.0778 100.616 9.87566C101.202 9.6533 101.839 9.54212 102.526 9.54212Z" fill="black"/>
<path d="M125.986 17.9715C125.986 19.6291 125.612 21.0946 124.864 22.3681C124.136 23.6214 123.146 24.6018 121.893 25.3093C120.66 26.0168 119.275 26.3706 117.739 26.3706C116.202 26.3706 114.808 26.0168 113.554 25.3093C112.321 24.6018 111.331 23.6214 110.583 22.3681C109.855 21.0946 109.491 19.6291 109.491 17.9715C109.491 16.3139 109.855 14.8585 110.583 13.6052C111.331 12.3317 112.321 11.3412 113.554 10.6337C114.808 9.90598 116.202 9.54212 117.739 9.54212C119.275 9.54212 120.66 9.90598 121.893 10.6337C123.146 11.3412 124.136 12.3317 124.864 13.6052C125.612 14.8585 125.986 16.3139 125.986 17.9715ZM122.347 17.9715C122.347 16.9406 122.135 16.0511 121.711 15.3032C121.306 14.5351 120.751 13.9387 120.043 13.5142C119.356 13.0897 118.588 12.8775 117.739 12.8775C116.89 12.8775 116.111 13.0897 115.404 13.5142C114.717 13.9387 114.161 14.5351 113.736 15.3032C113.332 16.0511 113.13 16.9406 113.13 17.9715C113.13 18.9822 113.332 19.8717 113.736 20.6398C114.161 21.3877 114.717 21.974 115.404 22.3985C116.111 22.823 116.89 23.0352 117.739 23.0352C118.588 23.0352 119.356 22.823 120.043 22.3985C120.751 21.974 121.306 21.3877 121.711 20.6398C122.135 19.8717 122.347 18.9822 122.347 17.9715Z" fill="black"/>
<path d="M139.548 9.84534C140.073 9.84534 140.508 10.0273 140.851 10.3911C141.195 10.7348 141.367 11.1694 141.367 11.695V19.3966C141.367 21.5394 140.771 23.2374 139.578 24.4907C138.385 25.7439 136.667 26.3706 134.423 26.3706C132.179 26.3706 130.461 25.7439 129.269 24.4907C128.096 23.2374 127.51 21.5394 127.51 19.3966V11.695C127.51 11.1694 127.682 10.7348 128.025 10.3911C128.369 10.0273 128.804 9.84534 129.329 9.84534C129.855 9.84534 130.289 10.0273 130.633 10.3911C130.977 10.7348 131.149 11.1694 131.149 11.695V19.3966C131.149 20.6297 131.421 21.5495 131.967 22.1559C132.513 22.7421 133.332 23.0352 134.423 23.0352C135.535 23.0352 136.364 22.7421 136.91 22.1559C137.455 21.5495 137.728 20.6297 137.728 19.3966V11.695C137.728 11.1694 137.9 10.7348 138.244 10.3911C138.587 10.0273 139.022 9.84534 139.548 9.84534Z" fill="black"/>
<path d="M142.85 23.5507C142.648 23.2677 142.557 22.9038 142.577 22.4591C142.597 22.0144 142.86 21.6303 143.366 21.3069C143.689 21.1047 144.033 21.0239 144.396 21.0643C144.76 21.0845 145.114 21.2665 145.458 21.6101C146.044 22.1963 146.66 22.6511 147.307 22.9746C147.954 23.298 148.763 23.4597 149.733 23.4597C150.036 23.4395 150.37 23.3991 150.734 23.3384C151.098 23.2576 151.411 23.0959 151.674 22.8533C151.957 22.5905 152.098 22.1963 152.098 21.6707C152.098 21.226 151.947 20.8723 151.643 20.6095C151.34 20.3467 150.936 20.1243 150.43 19.9424C149.945 19.7605 149.4 19.5887 148.793 19.427C148.166 19.245 147.52 19.0429 146.853 18.8205C146.206 18.5982 145.609 18.3152 145.064 17.9715C144.518 17.6077 144.073 17.1326 143.729 16.5464C143.386 15.9602 143.214 15.2224 143.214 14.3329C143.214 13.3222 143.497 12.4631 144.063 11.7556C144.629 11.0481 145.357 10.5023 146.246 10.1182C147.156 9.73416 148.106 9.54212 149.096 9.54212C149.723 9.54212 150.38 9.62298 151.067 9.78469C151.755 9.92619 152.411 10.1688 153.038 10.5124C153.665 10.8358 154.19 11.2704 154.615 11.8162C154.837 12.1195 154.969 12.4833 155.009 12.9078C155.049 13.3323 154.857 13.7164 154.433 14.06C154.13 14.3026 153.776 14.4138 153.372 14.3936C152.967 14.3531 152.634 14.2116 152.371 13.9691C152.027 13.5244 151.562 13.1706 150.976 12.9078C150.41 12.645 149.753 12.5136 149.005 12.5136C148.702 12.5136 148.369 12.5541 148.005 12.6349C147.661 12.6956 147.358 12.8472 147.095 13.0897C146.832 13.3121 146.701 13.676 146.701 14.1813C146.701 14.6463 146.853 15.0202 147.156 15.3032C147.459 15.566 147.863 15.7884 148.369 15.9703C148.894 16.132 149.45 16.2937 150.036 16.4554C150.643 16.6172 151.259 16.8092 151.886 17.0315C152.513 17.2539 153.089 17.547 153.614 17.9109C154.14 18.2747 154.564 18.7498 154.888 19.336C155.211 19.902 155.373 20.6297 155.373 21.5191C155.373 22.5501 155.07 23.4294 154.463 24.1571C153.857 24.8848 153.099 25.4407 152.189 25.8248C151.279 26.1887 150.35 26.3706 149.4 26.3706C148.207 26.3706 147.014 26.1684 145.822 25.7642C144.629 25.3397 143.638 24.6018 142.85 23.5507Z" fill="black"/>
</svg>
