<svg width="158" height="32" viewBox="0 0 158 32" fill="none" xmlns="http://www.w3.org/2000/svg">
<path d="M45.4668 1C45.4668 1.55229 45.9145 2 46.4668 2H47.4668C48.0191 2 48.4668 1.55229 48.4668 1C48.4668 0.447718 48.0191 2.79753e-06 47.4668 2.79753e-06H46.4668C45.9145 2.79753e-06 45.4668 0.447718 45.4668 1Z" fill="black"/>
<path d="M16.4668 32H21.3246L19.9104 30.5858C19.5354 30.2107 19.0266 30 18.4962 30H16.4668C8.7348 30 2.4668 23.732 2.4668 16C2.4668 8.268 8.7348 2.00001 16.4668 2H32.4668C40.1988 2 46.4668 8.268 46.4668 16C46.4668 23.732 40.1988 30 32.4668 30H26.4815C25.6858 30 24.9228 29.6839 24.3602 29.1214L22.7034 27.4645C21.7657 26.5268 20.4938 26 19.1678 26H16.4668C10.9439 26 6.4668 21.5229 6.4668 16C6.4668 10.4771 10.9439 6 16.4668 6H32.4668C37.9897 6 42.4668 10.4771 42.4668 16C42.4668 21.5229 37.9897 26 32.4668 26H28.6237C27.828 26 27.065 25.6839 26.5023 25.1214L24.8454 23.4645C23.9078 22.5268 22.636 22 21.3099 22H16.4668C13.1531 22 10.4668 19.3137 10.4668 16C10.4668 12.6863 13.1531 10 16.4668 10H32.4668C35.7805 10 38.4668 12.6863 38.4668 16C38.4668 19.2733 35.8456 21.9344 32.5878 21.9988L32.5871 22H31.1237C30.328 22 29.565 21.6839 29.0023 21.1214L27.3454 19.4645C26.5761 18.695 25.5818 18.2023 24.517 18.0502L24.4668 18H16.4668C15.3622 18 14.4668 17.1046 14.4668 16C14.4668 14.8954 15.3622 14 16.4668 14H32.4668C33.5714 14 34.4668 14.8954 34.4668 16C34.4668 17.1046 33.5714 18 32.4668 18H28.4668L29.881 19.4142C30.2561 19.7893 30.7648 20 31.2952 20H32.4668C34.6759 20 36.4668 18.2091 36.4668 16C36.4668 13.7909 34.6759 12 32.4668 12H16.4668C14.2577 12 12.4668 13.7909 12.4668 16C12.4668 18.2091 14.2577 20 16.4668 20H23.8099C24.6056 20 25.3686 20.3161 25.9313 20.8786L27.5882 22.5355C28.5258 23.4732 29.7976 24 31.1237 24H32.9668V23.9846C37.1522 23.7266 40.4668 20.2503 40.4668 16C40.4668 11.5818 36.885 8 32.4668 8H16.4668C12.0486 8 8.4668 11.5818 8.4668 16C8.4668 20.4183 12.0486 24 16.4668 24H21.3099C22.1056 24 22.8686 24.3161 23.4313 24.8786L25.0882 26.5355C26.0258 27.4732 27.2976 28 28.6237 28H32.4668C39.0942 28 44.4668 22.6274 44.4668 16C44.4668 9.37256 39.0942 4 32.4668 4H16.4668C9.83936 4 4.4668 9.37256 4.4668 16C4.4668 22.6274 9.83936 28 16.4668 28H19.1678C19.9634 28 20.7265 28.3161 21.2891 28.8786L22.946 30.5355C23.8837 31.4732 25.1554 32 26.4815 32H32.4668C41.3034 32 48.4668 24.8366 48.4668 16C48.4668 7.16344 41.3034 -7.72516e-07 32.4668 0L16.4668 3.30611e-06C7.63024 4.07863e-06 0.466796 7.16345 0.466797 16C0.466798 24.8366 7.63025 32 16.4668 32Z" fill="black"/>
<path d="M67.2268 9.216H66.3868L61.1068 24H58.6588L64.7068 7.2H68.8588L74.9068 24H72.4588L67.2268 9.216ZM61.7548 17.712H71.5468V19.728H61.7548V17.712Z" fill="black"/>
<path d="M76.572 6.72H78.828V24H76.572V6.72Z" fill="black"/>
<path d="M82.7953 12V8.64H85.0753V12H88.0753V14.016H85.0753V19.92C85.0753 20.656 85.2193 21.176 85.5073 21.48C85.8113 21.784 86.1873 21.96 86.6353 22.008C87.0993 22.04 87.5793 22.024 88.0753 21.96V23.904C87.4193 24.048 86.7713 24.088 86.1313 24.024C85.5073 23.976 84.9393 23.8 84.4273 23.496C83.9313 23.192 83.5313 22.752 83.2273 22.176C82.9393 21.584 82.7953 20.832 82.7953 19.92V14.016H81.0673V12H82.7953Z" fill="black"/>
<path d="M95.5734 24.168C94.4214 24.168 93.3974 23.904 92.5014 23.376C91.6214 22.832 90.9254 22.088 90.4134 21.144C89.9174 20.2 89.6694 19.12 89.6694 17.904C89.6694 16.736 89.9174 15.696 90.4134 14.784C90.9094 13.872 91.5894 13.152 92.4534 12.624C93.3334 12.096 94.3254 11.832 95.4294 11.832C96.5494 11.832 97.5414 12.08 98.4054 12.576C99.2694 13.056 99.9414 13.736 100.421 14.616C100.901 15.48 101.133 16.48 101.117 17.616C101.117 17.808 101.109 18.008 101.093 18.216C101.077 18.408 101.053 18.624 101.021 18.864H92.1414C92.1894 19.504 92.3654 20.072 92.6694 20.568C92.9894 21.048 93.3894 21.424 93.8694 21.696C94.3654 21.968 94.9254 22.104 95.5494 22.104C96.3494 22.104 97.0454 21.952 97.6374 21.648C98.2294 21.328 98.6454 20.904 98.8854 20.376L100.853 21.072C100.373 22.048 99.6694 22.808 98.7414 23.352C97.8294 23.896 96.7734 24.168 95.5734 24.168ZM98.6454 16.92C98.6454 16.344 98.5014 15.824 98.2134 15.36C97.9254 14.896 97.5334 14.536 97.0374 14.28C96.5574 14.008 96.0134 13.872 95.4054 13.872C94.8614 13.872 94.3574 14.008 93.8934 14.28C93.4454 14.536 93.0614 14.896 92.7414 15.36C92.4374 15.808 92.2454 16.328 92.1654 16.92H98.6454Z" fill="black"/>
<path d="M103.649 12H105.713L105.857 13.608C106.193 13.192 106.577 12.848 107.009 12.576C107.457 12.288 107.937 12.088 108.449 11.976C108.977 11.864 109.521 11.872 110.081 12V14.136C109.553 14.008 109.041 13.992 108.545 14.088C108.049 14.184 107.601 14.392 107.201 14.712C106.817 15.016 106.505 15.424 106.265 15.936C106.025 16.448 105.905 17.064 105.905 17.784V24H103.649V12Z" fill="black"/>
<path d="M112.896 12V8.64H115.176V12H118.176V14.016H115.176V19.92C115.176 20.656 115.32 21.176 115.608 21.48C115.912 21.784 116.288 21.96 116.736 22.008C117.2 22.04 117.68 22.024 118.176 21.96V23.904C117.52 24.048 116.872 24.088 116.232 24.024C115.608 23.976 115.04 23.8 114.528 23.496C114.032 23.192 113.632 22.752 113.328 22.176C113.04 21.584 112.896 20.832 112.896 19.92V14.016H111.168V12H112.896Z" fill="black"/>
<path d="M128.65 12H131.002L124.042 28.8H121.81L123.922 23.76L119.17 12H121.666L125.146 21.096L128.65 12Z" fill="black"/>
<path d="M134.945 21.96L135.185 21.888V28.8H132.929V12H134.993L135.161 13.8C135.545 13.256 136.073 12.792 136.745 12.408C137.433 12.024 138.265 11.832 139.241 11.832C140.297 11.832 141.233 12.088 142.049 12.6C142.865 13.112 143.505 13.832 143.969 14.76C144.449 15.672 144.689 16.752 144.689 18C144.689 19.232 144.457 20.312 143.993 21.24C143.545 22.168 142.913 22.888 142.097 23.4C141.281 23.912 140.329 24.168 139.241 24.168C138.201 24.168 137.313 23.96 136.577 23.544C135.857 23.112 135.313 22.584 134.945 21.96ZM142.241 18C142.241 16.768 141.913 15.776 141.257 15.024C140.617 14.272 139.777 13.896 138.737 13.896C138.065 13.896 137.465 14.056 136.937 14.376C136.409 14.696 135.985 15.16 135.665 15.768C135.345 16.376 135.185 17.12 135.185 18C135.185 18.864 135.345 19.6 135.665 20.208C135.985 20.816 136.409 21.288 136.937 21.624C137.465 21.944 138.065 22.104 138.737 22.104C139.777 22.104 140.617 21.728 141.257 20.976C141.913 20.224 142.241 19.232 142.241 18Z" fill="black"/>
<path d="M152.381 24.168C151.229 24.168 150.205 23.904 149.309 23.376C148.429 22.832 147.733 22.088 147.221 21.144C146.725 20.2 146.477 19.12 146.477 17.904C146.477 16.736 146.725 15.696 147.221 14.784C147.717 13.872 148.397 13.152 149.261 12.624C150.141 12.096 151.133 11.832 152.237 11.832C153.357 11.832 154.349 12.08 155.213 12.576C156.077 13.056 156.749 13.736 157.229 14.616C157.709 15.48 157.941 16.48 157.925 17.616C157.925 17.808 157.917 18.008 157.901 18.216C157.885 18.408 157.861 18.624 157.829 18.864H148.949C148.997 19.504 149.173 20.072 149.477 20.568C149.797 21.048 150.197 21.424 150.677 21.696C151.173 21.968 151.733 22.104 152.357 22.104C153.157 22.104 153.853 21.952 154.445 21.648C155.037 21.328 155.453 20.904 155.693 20.376L157.661 21.072C157.181 22.048 156.477 22.808 155.549 23.352C154.637 23.896 153.581 24.168 152.381 24.168ZM155.453 16.92C155.453 16.344 155.309 15.824 155.021 15.36C154.733 14.896 154.341 14.536 153.845 14.28C153.365 14.008 152.821 13.872 152.213 13.872C151.669 13.872 151.165 14.008 150.701 14.28C150.253 14.536 149.869 14.896 149.549 15.36C149.245 15.808 149.053 16.328 148.973 16.92H155.453Z" fill="black"/>
</svg>
