<svg width="715" height="164" viewBox="0 0 715 164" fill="none" xmlns="http://www.w3.org/2000/svg">
<path d="M10.1619 110.859V153.805H60.0115V164H0V110.859H10.1619Z" fill="black"/>
<path d="M124.819 164L99.2139 119.528L73.6091 164H61.8468L92.4126 110.859H105.935L136.581 164H124.819Z" fill="black"/>
<path d="M200.776 142.567H152.367V153.805H200.776C202.964 153.859 204.617 152.922 205.737 150.996C206.271 150.139 206.538 149.203 206.538 148.186C206.538 147.169 206.271 146.206 205.737 145.296C204.617 143.423 202.964 142.513 200.776 142.567ZM142.205 121.053V110.859H194.455C198.829 110.859 202.537 112.411 205.577 115.514C208.671 118.618 210.245 122.338 210.298 126.673C210.298 129.402 209.631 131.944 208.298 134.299C211.499 136.011 213.819 138.526 215.259 141.844C216.7 145.162 216.966 148.587 216.059 152.119C215.153 155.598 213.286 158.461 210.458 160.709C207.631 162.903 204.404 164 200.776 164H142.205V132.292H194.455C196.002 132.292 197.282 131.757 198.296 130.686C199.363 129.562 199.896 128.251 199.896 126.753C199.896 125.201 199.363 123.89 198.296 122.819C197.282 121.696 196.002 121.107 194.455 121.053H142.205Z" fill="black"/>
<path d="M238.731 132.292H281.539C285.86 132.399 289.514 134.004 292.501 137.108C295.542 140.159 297.062 143.851 297.062 148.186C297.062 152.521 295.542 156.24 292.501 159.344C289.514 162.395 285.86 163.946 281.539 164H222.968V153.805H281.539C283.726 153.859 285.38 152.922 286.5 150.996C287.034 150.139 287.3 149.203 287.3 148.186C287.3 147.169 287.034 146.206 286.5 145.296C285.38 143.423 283.726 142.513 281.539 142.567H238.731C234.41 142.513 230.73 140.935 227.689 137.831C224.702 134.727 223.208 131.034 223.208 126.753C223.208 122.418 224.702 118.699 227.689 115.595C230.73 112.491 234.41 110.912 238.731 110.859H297.302V121.053H238.731C236.544 121 234.89 121.936 233.77 123.863C232.65 125.736 232.65 127.636 233.77 129.562C234.89 131.435 236.544 132.345 238.731 132.292Z" fill="black"/>
<path d="M32.1661 2.87082e-05L111.381 0V15.4127H32.1661C27.5253 15.4127 23.5645 17.0583 20.2839 20.3495C17.0833 23.6407 15.4429 27.6143 15.3629 32.2702V47.5624C15.4429 52.2183 17.0833 56.1919 20.2839 59.4831C23.5645 62.7744 27.5253 64.42 32.1661 64.42H111.381V79.7122H32.1661C23.3645 79.7122 15.803 76.5815 9.48181 70.3201C3.24062 63.9785 0.120022 56.3926 0.120022 47.5624V32.1498C0.120022 23.3196 3.24062 15.7739 9.48181 9.51251C15.803 3.17086 23.3645 2.87082e-05 32.1661 2.87082e-05Z" fill="black"/>
<path d="M236.051 79.7122H215.287L192.843 55.1483H138.113V79.7122H122.87V39.8561H202.205C205.726 39.8561 208.806 39.254 211.447 38.0499C214.087 36.8458 215.967 35.3206 217.088 33.4743C218.288 31.628 218.888 29.6613 218.888 27.5742C218.888 25.4871 218.288 23.5203 217.088 21.674C215.967 19.8277 214.087 18.3025 211.447 17.0984C208.806 15.8943 205.726 15.2922 202.205 15.2922H122.87V2.87082e-05H202.205C206.926 2.87082e-05 211.207 0.682359 215.047 2.04702C218.968 3.33141 222.169 5.09744 224.649 7.34511C227.21 9.51251 229.29 12.0411 230.89 14.931C232.491 17.8209 233.491 20.8312 233.891 23.9618C234.291 27.0123 234.131 30.1429 233.411 33.3539C232.691 36.4846 231.45 39.4146 229.69 42.1439C228.01 44.793 225.689 47.2012 222.729 49.3686C219.768 51.4557 216.368 52.9809 212.527 53.9442L236.051 79.7122Z" fill="black"/>
<path d="M263.684 79.7122H240.999L284.688 39.8561L240.999 2.87082e-05H263.684L296.09 29.5008L328.496 2.87082e-05H351.18L263.684 79.7122Z" fill="black"/>
<path d="M358.101 15.2922V2.87082e-05H469.363V15.2922H358.101ZM373.344 47.5624V64.42H469.363V79.7122H358.101V32.1498H469.363V47.5624H373.344Z" fill="black"/>
<path d="M483.673 2.87082e-05H506.957L579.931 67.1895V2.87082e-05H595.174V79.7122H571.89L498.916 12.5228V79.7122H483.673V2.87082e-05Z" fill="black"/>
<path d="M627.503 79.7122H604.819L648.507 39.8561L604.819 2.87082e-05H627.503L659.909 29.5008L692.316 2.87082e-05H715L671.312 39.8561L715 79.7122H692.316L659.909 50.2115L627.503 79.7122Z" fill="black"/>
</svg>
